<svg xmlns="http://www.w3.org/2000/svg" viewBox="0 0 1200 750" font-family="-apple-system,BlinkMacSystemFont,'Inter','Segoe UI',system-ui,sans-serif">
  <defs>
    <radialGradient id="nodeBlue" cx="50%" cy="50%" r="50%">
      <stop offset="0%" stop-color="#7aa2f7" stop-opacity="0.9"/>
      <stop offset="60%" stop-color="#7aa2f7" stop-opacity="0.5"/>
      <stop offset="100%" stop-color="#7aa2f7" stop-opacity="0"/>
    </radialGradient>
    <radialGradient id="nodeGreen" cx="50%" cy="50%" r="50%">
      <stop offset="0%" stop-color="#9ece6a" stop-opacity="0.9"/>
      <stop offset="60%" stop-color="#9ece6a" stop-opacity="0.45"/>
      <stop offset="100%" stop-color="#9ece6a" stop-opacity="0"/>
    </radialGradient>
    <radialGradient id="nodePurple" cx="50%" cy="50%" r="50%">
      <stop offset="0%" stop-color="#bb9af7" stop-opacity="0.9"/>
      <stop offset="60%" stop-color="#bb9af7" stop-opacity="0.45"/>
      <stop offset="100%" stop-color="#bb9af7" stop-opacity="0"/>
    </radialGradient>
    <radialGradient id="nodeFocus" cx="50%" cy="50%" r="50%">
      <stop offset="0%" stop-color="#e0af68" stop-opacity="1"/>
      <stop offset="55%" stop-color="#e0af68" stop-opacity="0.6"/>
      <stop offset="100%" stop-color="#e0af68" stop-opacity="0"/>
    </radialGradient>
    <marker id="arrowBlue" viewBox="0 0 10 10" refX="9" refY="5" markerWidth="6" markerHeight="6" orient="auto">
      <path d="M0,0 L10,5 L0,10 z" fill="#7aa2f7"/>
    </marker>
    <marker id="arrowRed" viewBox="0 0 10 10" refX="9" refY="5" markerWidth="6" markerHeight="6" orient="auto">
      <path d="M0,0 L10,5 L0,10 z" fill="#f7768e"/>
    </marker>
    <marker id="arrowYellow" viewBox="0 0 10 10" refX="9" refY="5" markerWidth="6" markerHeight="6" orient="auto">
      <path d="M0,0 L10,5 L0,10 z" fill="#e0af68"/>
    </marker>
  </defs>

  <!-- background card -->
  <rect width="1200" height="750" fill="#0b0d10"/>
  <rect x="20" y="20" width="1160" height="710" rx="14" fill="#14181d" stroke="#232a33"/>

  <!-- header / toolbar -->
  <g transform="translate(40,45)">
    <text x="0" y="16" fill="#e6e9ef" font-size="14" font-weight="600">synapsen</text>
    <text x="90" y="16" fill="#5a6473" font-size="11">— assoziativer Memory-Graph, gerichtete Relationen + Hebbian-Koaktivierung</text>
    <g transform="translate(740,0)" font-size="11" fill="#8a94a6">
      <rect x="0" y="2" width="14" height="14" rx="3" fill="#1a1f26" stroke="#2e3640"/>
      <path d="M3,9 L6,12 L11,5" fill="none" stroke="#9ece6a" stroke-width="2"/>
      <text x="20" y="13">hebb</text>
      <rect x="60" y="2" width="56" height="16" rx="4" fill="#1a1f26" stroke="#2e3640"/>
      <text x="72" y="14" fill="#e6e9ef">400</text>
      <text x="100" y="14">▾</text>
      <rect x="130" y="2" width="80" height="16" rx="4" fill="#1a1f26" stroke="#2e3640"/>
      <text x="142" y="14" fill="#e6e9ef">suche…</text>
    </g>
  </g>

  <!-- graph canvas -->
  <g transform="translate(40,80)">
    <rect x="0" y="0" width="820" height="640" rx="10" fill="#0f1317" stroke="#1c232b"/>

    <!-- edges first (under nodes) -->
    <!-- cluster A: vwmcp (related, blue) -->
    <path d="M180,160 Q 225,210 270,260" stroke="#7aa2f7" stroke-width="1.4" fill="none" opacity="0.8"/>
    <path d="M180,160 Q 150,240 140,320" stroke="#7aa2f7" stroke-width="1.4" fill="none" opacity="0.75"/>
    <path d="M270,260 Q 200,290 140,320" stroke="#7aa2f7" stroke-width="1.4" fill="none" opacity="0.8"/>
    <path d="M270,260 Q 250,210 180,160" stroke="#7aa2f7" stroke-width="1.2" fill="none" opacity="0.7"/>

    <!-- cluster B: inventory/manufacturer (related, blue; one led_to yellow) -->
    <path d="M390,300 Q 440,330 490,370" stroke="#7aa2f7" stroke-width="1.6" fill="none" opacity="0.85"/>
    <path d="M490,370 Q 540,400 590,400" stroke="#7aa2f7" stroke-width="1.6" fill="none" opacity="0.85"/>
    <path d="M490,370 Q 480,440 450,510" stroke="#7aa2f7" stroke-width="1.4" fill="none" opacity="0.8"/>
    <path d="M390,300 Q 450,380 450,510" stroke="#7aa2f7" stroke-width="1.3" fill="none" opacity="0.7"/>
    <path d="M590,400 L 490,370" stroke="#7aa2f7" stroke-width="1.2" fill="none" opacity="0.6"/>
    <path d="M390,300 Q 430,340 490,370" stroke="#e0af68" stroke-width="1.8" fill="none" opacity="0.9" marker-end="url(#arrowYellow)"/>

    <!-- cluster C: cognition (hebbian, grey undirected) -->
    <path d="M660,470 Q 690,490 720,530" stroke="#5a6473" stroke-width="1.2" fill="none" opacity="0.7" stroke-dasharray="2 3"/>
    <path d="M720,530 Q 750,520 780,490" stroke="#5a6473" stroke-width="1.2" fill="none" opacity="0.7" stroke-dasharray="2 3"/>
    <path d="M660,470 Q 720,510 780,490" stroke="#5a6473" stroke-width="1.0" fill="none" opacity="0.6" stroke-dasharray="2 3"/>
    <path d="M720,530 Q 710,570 660,580" stroke="#5a6473" stroke-width="1.0" fill="none" opacity="0.6" stroke-dasharray="2 3"/>

    <!-- bridges (blue related, curved) -->
    <path d="M270,260 Q 320,320 390,300" stroke="#7aa2f7" stroke-width="1.4" fill="none" opacity="0.55"/>
    <path d="M590,400 Q 625,430 660,470" stroke="#7aa2f7" stroke-width="1.6" fill="none" opacity="0.7"/>

    <!-- contradicts edge (red, arrow) -->
    <path d="M450,510 Q 530,530 660,580" stroke="#f7768e" stroke-width="1.6" fill="none" opacity="0.85" marker-end="url(#arrowRed)"/>

    <!-- nodes: cluster A -->
    <g>
      <circle cx="180" cy="160" r="26" fill="url(#nodeBlue)"/>
      <circle cx="180" cy="160" r="7" fill="#7aa2f7"/>
      <text x="180" y="145" text-anchor="middle" fill="#c3cee7" font-size="10">bridge design</text>
    </g>
    <g>
      <circle cx="270" cy="260" r="28" fill="url(#nodeBlue)"/>
      <circle cx="270" cy="260" r="8" fill="#7aa2f7"/>
      <text x="270" y="243" text-anchor="middle" fill="#c3cee7" font-size="10">plugin loader</text>
    </g>
    <g>
      <circle cx="140" cy="320" r="24" fill="url(#nodeBlue)"/>
      <circle cx="140" cy="320" r="6" fill="#7aa2f7"/>
      <text x="140" y="305" text-anchor="middle" fill="#c3cee7" font-size="10">applescript tick</text>
    </g>

    <!-- cluster B -->
    <g>
      <circle cx="390" cy="300" r="28" fill="url(#nodeBlue)"/>
      <circle cx="390" cy="300" r="8" fill="#7aa2f7"/>
      <text x="390" y="283" text-anchor="middle" fill="#c3cee7" font-size="10">eurotruss traverse</text>
    </g>
    <g>
      <circle cx="490" cy="370" r="32" fill="url(#nodeFocus)"/>
      <circle cx="490" cy="370" r="9" fill="#e0af68"/>
      <text x="490" y="352" text-anchor="middle" fill="#f6d99b" font-size="10" font-weight="600">category: rigging</text>
    </g>
    <g>
      <circle cx="590" cy="400" r="26" fill="url(#nodeBlue)"/>
      <circle cx="590" cy="400" r="7" fill="#7aa2f7"/>
      <text x="590" y="385" text-anchor="middle" fill="#c3cee7" font-size="10">robe forte</text>
    </g>
    <g>
      <circle cx="450" cy="510" r="25" fill="url(#nodeBlue)"/>
      <circle cx="450" cy="510" r="7" fill="#7aa2f7"/>
      <text x="450" y="495" text-anchor="middle" fill="#c3cee7" font-size="10">csv mapping</text>
    </g>

    <!-- cluster C (cognition, hebbian-heavy — purple) -->
    <g>
      <circle cx="660" cy="470" r="26" fill="url(#nodePurple)"/>
      <circle cx="660" cy="470" r="7" fill="#bb9af7"/>
      <text x="660" y="455" text-anchor="middle" fill="#d8c4f7" font-size="10">memory patterns</text>
    </g>
    <g>
      <circle cx="720" cy="530" r="28" fill="url(#nodePurple)"/>
      <circle cx="720" cy="530" r="8" fill="#bb9af7"/>
      <text x="720" y="513" text-anchor="middle" fill="#d8c4f7" font-size="10">hebbian link</text>
    </g>
    <g>
      <circle cx="780" cy="490" r="25" fill="url(#nodePurple)"/>
      <circle cx="780" cy="490" r="7" fill="#bb9af7"/>
      <text x="780" y="475" text-anchor="middle" fill="#d8c4f7" font-size="10">coactivation</text>
    </g>
    <g>
      <circle cx="660" cy="580" r="24" fill="url(#nodePurple)"/>
      <circle cx="660" cy="580" r="6" fill="#bb9af7"/>
      <text x="660" y="565" text-anchor="middle" fill="#d8c4f7" font-size="10">event bus</text>
    </g>

    <!-- legend -->
    <g transform="translate(24,600)" font-size="10" fill="#8a94a6">
      <rect x="-4" y="-16" width="400" height="30" rx="6" fill="#14181d" stroke="#232a33"/>
      <circle cx="8" cy="0" r="3" fill="#7aa2f7"/><text x="18" y="3">related (228)</text>
      <circle cx="108" cy="0" r="3" fill="#e0af68"/><text x="118" y="3">led_to (1)</text>
      <circle cx="178" cy="0" r="3" fill="#f7768e"/><text x="188" y="3">contradicts (1)</text>
      <circle cx="268" cy="0" r="3" fill="#5a6473"/><text x="278" y="3">hebb (3)</text>
    </g>
  </g>

  <!-- right panel: details -->
  <g transform="translate(880,80)">
    <rect x="0" y="0" width="280" height="640" rx="10" fill="#0f1317" stroke="#1c232b"/>
    <g transform="translate(16,22)">
      <text fill="#e6e9ef" font-size="12" font-weight="600">category: rigging</text>
      <text y="18" fill="#5a6473" font-size="10">id 6f31…a4b · projects · stage: semantic</text>

      <g transform="translate(0,36)" font-size="10">
        <rect x="0" y="0" width="68" height="18" rx="9" fill="#1a2230" stroke="#2a3a5a"/>
        <text x="34" y="12" text-anchor="middle" fill="#7aa2f7">rigging</text>
        <rect x="74" y="0" width="82" height="18" rx="9" fill="#1a2230" stroke="#2a3a5a"/>
        <text x="115" y="12" text-anchor="middle" fill="#7aa2f7">eurotruss</text>
        <rect x="162" y="0" width="62" height="18" rx="9" fill="#1a2230" stroke="#2a3a5a"/>
        <text x="193" y="12" text-anchor="middle" fill="#7aa2f7">inventory</text>
      </g>

      <text y="78" fill="#c3cee7" font-size="11" font-weight="600">content</text>
      <g font-size="10.5" fill="#c3cee7">
        <text y="96">Sammlung aller Traversen- und Rigging-</text>
        <text y="110">Artikel im Inventar. Verknüpft mit dem</text>
        <text y="124">Produktdaten-Workflow (CSV-Mapping)</text>
        <text y="138">und dem aktiven Hersteller-Cluster.</text>
        <text y="152">strength 1.31 · access 41 · useful 7</text>
      </g>

      <text y="184" fill="#c3cee7" font-size="11" font-weight="600">why</text>
      <g font-size="10" transform="translate(0,198)">
        <rect x="0" y="0" width="248" height="22" rx="4" fill="#14181d" stroke="#232a33"/>
        <circle cx="10" cy="11" r="3" fill="#e0af68"/>
        <text x="22" y="15" fill="#e0af68" font-weight="600">led_to</text>
        <text x="70" y="15" fill="#8a94a6">eurotruss traverse</text>
        <rect x="0" y="28" width="248" height="22" rx="4" fill="#14181d" stroke="#232a33"/>
        <circle cx="10" cy="39" r="3" fill="#7aa2f7"/>
        <text x="22" y="43" fill="#7aa2f7" font-weight="600">related</text>
        <text x="70" y="43" fill="#8a94a6">robe forte · weight 0.85</text>
        <rect x="0" y="56" width="248" height="22" rx="4" fill="#14181d" stroke="#232a33"/>
        <circle cx="10" cy="67" r="3" fill="#7aa2f7"/>
        <text x="22" y="71" fill="#7aa2f7" font-weight="600">related</text>
        <text x="70" y="71" fill="#8a94a6">csv mapping · weight 0.81</text>
        <rect x="0" y="84" width="248" height="22" rx="4" fill="#14181d" stroke="#232a33"/>
        <circle cx="10" cy="95" r="3" fill="#f7768e"/>
        <text x="22" y="99" fill="#f7768e" font-weight="600">contradicts</text>
        <text x="70" y="99" fill="#8a94a6">csv mapping (by conscience)</text>
      </g>

      <text y="336" fill="#c3cee7" font-size="11" font-weight="600">history</text>
      <g font-size="9.5" fill="#8a94a6" font-family="ui-monospace,Menlo,monospace" transform="translate(0,350)">
        <text y="0">14:22  used_in_response</text>
        <text y="14">14:03  coactivation_update (+0.05)</text>
        <text y="28">11:51  chain_created related→robe</text>
        <text y="42">03:05  sws/pattern-consolidate</text>
        <text y="56">09:12  created</text>
      </g>

      <text y="440" fill="#c3cee7" font-size="11" font-weight="600">stats</text>
      <g font-size="10" transform="translate(0,456)" fill="#8a94a6">
        <text y="0">degree</text><text x="240" y="0" text-anchor="end" fill="#e6e9ef">12</text>
        <text y="16">hebb-evidence</text><text x="240" y="16" text-anchor="end" fill="#e6e9ef">3</text>
        <text y="32">betweenness</text><text x="240" y="32" text-anchor="end" fill="#e6e9ef">0.18</text>
        <text y="48">cluster-id</text><text x="240" y="48" text-anchor="end" fill="#e6e9ef">eurotruss</text>
      </g>
    </g>
  </g>

  <!-- footer label -->
  <text x="40" y="735" fill="#5a6473" font-size="10">engram · dashboard · synapses tab · illustrative dummy data</text>
</svg>
