<svg xmlns="http://www.w3.org/2000/svg" viewBox="0 0 1200 750" font-family="-apple-system,BlinkMacSystemFont,'Inter','Segoe UI',system-ui,sans-serif">
  <rect width="1200" height="750" fill="#0b0d10"/>
  <rect x="20" y="20" width="1160" height="710" rx="14" fill="#14181d" stroke="#232a33"/>

  <!-- header -->
  <g transform="translate(40,45)">
    <text fill="#e6e9ef" font-size="14" font-weight="600">schlaf</text>
    <text x="52" y="0" fill="#5a6473" font-size="11">— nightly consolidation, biologisch inspirierte Zyklen, 03:00 cron</text>
  </g>

  <!-- three phase summary cards -->
  <g transform="translate(40,80)">
    <rect x="0" y="0" width="360" height="140" rx="10" fill="#0f1317" stroke="#1c232b"/>
    <g transform="translate(20,26)">
      <text fill="#e6e9ef" font-size="12" font-weight="600">phase 1 · SWS</text>
      <text y="18" fill="#5a6473" font-size="10">slow-wave sleep · synaptic downscaling (Tononi SHY)</text>
      <g font-size="10.5" fill="#8a94a6" transform="translate(0,40)">
        <text y="0">forget weak (&lt;0.05 strength)</text><text x="324" y="0" text-anchor="end" fill="#e6e9ef">12</text>
        <text y="16">consolidate episodic→semantic</text><text x="324" y="16" text-anchor="end" fill="#e6e9ef">8</text>
        <text y="32">dedup memories (cos &gt; 0.93)</text><text x="324" y="32" text-anchor="end" fill="#e6e9ef">3</text>
        <text y="48">relations by patterns</text><text x="324" y="48" text-anchor="end" fill="#9ece6a">228</text>
      </g>
    </g>
  </g>

  <g transform="translate(420,80)">
    <rect x="0" y="0" width="360" height="140" rx="10" fill="#0f1317" stroke="#1c232b"/>
    <g transform="translate(20,26)">
      <text fill="#e6e9ef" font-size="12" font-weight="600">phase 2 · REM</text>
      <text y="18" fill="#5a6473" font-size="10">pattern extraction · lesson formation</text>
      <g font-size="10.5" fill="#8a94a6" transform="translate(0,40)">
        <text y="0">clusters found (cos &gt; 0.85)</text><text x="324" y="0" text-anchor="end" fill="#e6e9ef">2</text>
        <text y="16">lessons deduped</text><text x="324" y="16" text-anchor="end" fill="#e6e9ef">1</text>
        <text y="32">promotion candidates</text><text x="324" y="32" text-anchor="end" fill="#e6e9ef">4</text>
        <text y="48">traits promoted</text><text x="324" y="48" text-anchor="end" fill="#9ece6a">1</text>
      </g>
    </g>
  </g>

  <g transform="translate(800,80)">
    <rect x="0" y="0" width="360" height="140" rx="10" fill="#0f1317" stroke="#1c232b"/>
    <g transform="translate(20,26)">
      <text fill="#e6e9ef" font-size="12" font-weight="600">phase 3 · metacognition</text>
      <text y="18" fill="#5a6473" font-size="10">default-mode network analog · self-model update</text>
      <g font-size="10.5" fill="#8a94a6" transform="translate(0,40)">
        <text y="0">narrate_self persisted</text><text x="324" y="0" text-anchor="end" fill="#9ece6a">✓</text>
        <text y="16">centroid shift (7d)</text><text x="324" y="16" text-anchor="end" fill="#e6e9ef">0.046</text>
        <text y="32">weekly fitness (sunday)</text><text x="324" y="32" text-anchor="end" fill="#5a6473">skipped · monday</text>
        <text y="48">duration</text><text x="324" y="48" text-anchor="end" fill="#e6e9ef">38.2 s</text>
      </g>
    </g>
  </g>

  <!-- history table -->
  <g transform="translate(40,250)">
    <rect x="0" y="0" width="1120" height="440" rx="10" fill="#0f1317" stroke="#1c232b"/>
    <text x="20" y="28" fill="#c3cee7" font-size="12" font-weight="600">letzte 7 Nächte</text>

    <!-- column headers -->
    <g transform="translate(20,56)" font-size="10" fill="#5a6473" text-transform="uppercase">
      <text x="0" y="0">DATUM</text>
      <text x="130" y="0">STATUS</text>
      <text x="230" y="0">FORGET</text>
      <text x="320" y="0">CONSOLIDATE</text>
      <text x="440" y="0">DEDUP</text>
      <text x="530" y="0">RELATIONS</text>
      <text x="650" y="0">CLUSTERS</text>
      <text x="750" y="0">TRAITS↑</text>
      <text x="850" y="0">DAUER</text>
      <text x="970" y="0">SELF-MODEL</text>
    </g>
    <line x1="20" y1="70" x2="1100" y2="70" stroke="#1c232b"/>

    <!-- rows -->
    <g font-size="11" fill="#e6e9ef">
      <!-- today (partial, orange) -->
      <g transform="translate(20,92)">
        <text x="0" y="0">2026-04-21</text>
        <rect x="126" y="-14" width="68" height="18" rx="9" fill="#3a2e1a" stroke="#5a4a2a"/>
        <text x="160" y="-1" text-anchor="middle" fill="#e0af68" font-size="10">partial</text>
        <text x="230" y="0">12</text>
        <text x="320" y="0">8</text>
        <text x="440" y="0">3</text>
        <text x="530" y="0" fill="#9ece6a">228</text>
        <text x="650" y="0">2</text>
        <text x="750" y="0">1</text>
        <text x="850" y="0">38.2 s</text>
        <text x="970" y="0" fill="#9ece6a">✓ persisted</text>
      </g>
      <line x1="20" y1="108" x2="1100" y2="108" stroke="#1c232b"/>

      <g transform="translate(20,136)">
        <text x="0" y="0">2026-04-20</text>
        <rect x="126" y="-14" width="52" height="18" rx="9" fill="#1a3a1a" stroke="#2a5a2e"/>
        <text x="152" y="-1" text-anchor="middle" fill="#9ece6a" font-size="10">ok</text>
        <text x="230" y="0">8</text>
        <text x="320" y="0">5</text>
        <text x="440" y="0">2</text>
        <text x="530" y="0">0</text>
        <text x="650" y="0">1</text>
        <text x="750" y="0">0</text>
        <text x="850" y="0">24.6 s</text>
        <text x="970" y="0" fill="#9ece6a">✓ persisted</text>
      </g>
      <line x1="20" y1="152" x2="1100" y2="152" stroke="#1c232b"/>

      <g transform="translate(20,180)">
        <text x="0" y="0">2026-04-19</text>
        <rect x="126" y="-14" width="52" height="18" rx="9" fill="#1a3a1a" stroke="#2a5a2e"/>
        <text x="152" y="-1" text-anchor="middle" fill="#9ece6a" font-size="10">ok</text>
        <text x="230" y="0">15</text>
        <text x="320" y="0">11</text>
        <text x="440" y="0">4</text>
        <text x="530" y="0">0</text>
        <text x="650" y="0">3</text>
        <text x="750" y="0">1</text>
        <text x="850" y="0">31.0 s</text>
        <text x="970" y="0" fill="#9ece6a">✓ persisted</text>
      </g>
      <line x1="20" y1="196" x2="1100" y2="196" stroke="#1c232b"/>

      <g transform="translate(20,224)">
        <text x="0" y="0">2026-04-18</text>
        <rect x="126" y="-14" width="52" height="18" rx="9" fill="#1a3a1a" stroke="#2a5a2e"/>
        <text x="152" y="-1" text-anchor="middle" fill="#9ece6a" font-size="10">ok</text>
        <text x="230" y="0">9</text>
        <text x="320" y="0">6</text>
        <text x="440" y="0">1</text>
        <text x="530" y="0">0</text>
        <text x="650" y="0">2</text>
        <text x="750" y="0">0</text>
        <text x="850" y="0">26.4 s</text>
        <text x="970" y="0" fill="#9ece6a">✓ persisted</text>
      </g>
      <line x1="20" y1="240" x2="1100" y2="240" stroke="#1c232b"/>

      <g transform="translate(20,268)">
        <text x="0" y="0">2026-04-17</text>
        <rect x="126" y="-14" width="52" height="18" rx="9" fill="#1a3a1a" stroke="#2a5a2e"/>
        <text x="152" y="-1" text-anchor="middle" fill="#9ece6a" font-size="10">ok</text>
        <text x="230" y="0">6</text>
        <text x="320" y="0">4</text>
        <text x="440" y="0">2</text>
        <text x="530" y="0">0</text>
        <text x="650" y="0">1</text>
        <text x="750" y="0">0</text>
        <text x="850" y="0">22.8 s</text>
        <text x="970" y="0" fill="#9ece6a">✓ persisted</text>
      </g>
      <line x1="20" y1="284" x2="1100" y2="284" stroke="#1c232b"/>

      <!-- weekly fitness on Sunday -->
      <g transform="translate(20,312)">
        <text x="0" y="0">2026-04-16</text>
        <rect x="126" y="-14" width="78" height="18" rx="9" fill="#1a2a3a" stroke="#2a3a5a"/>
        <text x="165" y="-1" text-anchor="middle" fill="#7aa2f7" font-size="10">ok · weekly</text>
        <text x="230" y="0">11</text>
        <text x="320" y="0">7</text>
        <text x="440" y="0">3</text>
        <text x="530" y="0">0</text>
        <text x="650" y="0">4</text>
        <text x="750" y="0">2</text>
        <text x="850" y="0">44.1 s</text>
        <text x="970" y="0" fill="#7aa2f7">✓ + fitness</text>
      </g>
      <line x1="20" y1="328" x2="1100" y2="328" stroke="#1c232b"/>

      <g transform="translate(20,356)">
        <text x="0" y="0">2026-04-15</text>
        <rect x="126" y="-14" width="52" height="18" rx="9" fill="#3a1a1f" stroke="#5a2a35"/>
        <text x="152" y="-1" text-anchor="middle" fill="#f7768e" font-size="10">err</text>
        <text x="230" y="0">0</text>
        <text x="320" y="0">0</text>
        <text x="440" y="0">0</text>
        <text x="530" y="0">0</text>
        <text x="650" y="0">0</text>
        <text x="750" y="0">0</text>
        <text x="850" y="0" fill="#f7768e">ollama timeout</text>
        <text x="970" y="0" fill="#f7768e">—</text>
      </g>
    </g>

    <text x="20" y="418" fill="#5a6473" font-size="10">— 6 von 7 grün · gefüllter Run hinterlässt sleep_cycles-Zeile mit vollem Ergebnis-JSON · failure recovers automatisch nächste Nacht.</text>
  </g>

  <text x="40" y="735" fill="#5a6473" font-size="10">engram · dashboard · sleep tab · illustrative dummy data</text>
</svg>
